<svg width="199" height="24" viewBox="0 0 199 24" fill="none" xmlns="http://www.w3.org/2000/svg">
<path d="M8.46854 22.531C9.0511 22.531 9.62286 22.4509 10.173 22.296C10.7232 22.1331 11.2249 21.9061 11.6564 21.6043C12.0933 21.2945 12.4493 20.9205 12.719 20.4718C12.9914 20.0338 13.1316 19.5184 13.1316 18.9281C13.1316 18.2364 12.9455 17.6141 12.5868 17.0692C12.2147 16.5137 11.7427 16.0142 11.144 15.5549C10.5452 15.1008 9.87098 14.6735 9.10503 14.2702C8.34179 13.8722 7.55966 13.4583 6.76675 13.0603C5.97383 12.657 5.19979 12.2377 4.44194 11.7917C3.68409 11.3456 3.00445 10.8462 2.40571 10.312C1.81238 9.75918 1.32962 9.15557 0.973613 8.47184C0.606822 7.80414 0.428821 7.02426 0.428821 6.14823C0.428821 5.26419 0.593338 4.45493 0.919673 3.7071C1.25949 2.95393 1.74495 2.31026 2.37874 1.76274C3.02332 1.21789 3.81085 0.777209 4.75749 0.467394C5.69874 0.157578 6.76405 0 7.975 0C9.07267 0 10.0517 0.117516 10.9174 0.344536C11.7724 0.58491 12.5302 0.918762 13.1802 1.3728C13.8248 1.81349 14.375 2.36368 14.8334 3.03405C15.2811 3.6884 15.6533 4.45493 15.9419 5.30158L13.9488 6.22568C13.7061 5.51792 13.4121 4.86624 13.0588 4.284C12.6866 3.69642 12.2551 3.19697 11.7616 2.78032C11.268 2.36101 10.6801 2.04585 10.0193 1.81883C9.35855 1.59715 8.62767 1.49032 7.7943 1.49032C7.0742 1.49032 6.43502 1.5838 5.88753 1.78411C5.34273 1.99243 4.88155 2.2515 4.51746 2.58001C4.15606 2.90585 3.88366 3.28778 3.70836 3.69642C3.52766 4.11039 3.44136 4.52437 3.44136 4.94369C3.44136 5.55798 3.63284 6.10283 4.00233 6.60227C4.37721 7.10973 4.86806 7.58246 5.47489 8.02582C6.0871 8.46917 6.78293 8.89384 7.57584 9.31048C8.35797 9.72713 9.16167 10.1465 9.97616 10.5738C10.7907 10.9958 11.589 11.4391 12.3711 11.9039C13.1586 12.3712 13.8598 12.8787 14.472 13.4289C15.0789 13.9764 15.5697 14.58 15.9446 15.2264C16.3195 15.8727 16.5002 16.6072 16.5002 17.4164C16.5002 18.3138 16.3357 19.1658 15.9797 19.9644C15.6237 20.763 15.1031 21.4627 14.4073 22.053C13.7169 22.6459 12.8512 23.116 11.8101 23.4685C10.7853 23.8184 9.57431 23.9973 8.19885 23.9973C7.08499 23.9973 6.09789 23.8691 5.22676 23.6314C4.35564 23.3777 3.5789 23.0358 2.90466 22.5711C2.2358 22.1037 1.66404 21.5375 1.18398 20.8725C0.69852 20.2074 0.307457 19.4569 0 18.6049L2.10095 17.7636C2.33829 18.5008 2.65653 19.1712 3.07457 19.7614C3.48721 20.349 3.96457 20.8511 4.51206 21.2624C5.05955 21.6684 5.67177 21.9835 6.34062 22.1999C7.01217 22.4242 7.72687 22.531 8.46854 22.531Z" fill="white"/>
<path d="M24.2864 0.518066H32.3072C33.6989 0.518066 34.9206 0.662291 35.9697 0.958752C37.0216 1.26857 37.8954 1.67186 38.5966 2.20335C39.3032 2.73485 39.8237 3.36783 40.177 4.10231C40.533 4.82877 40.7083 5.63002 40.7083 6.49536C40.7083 7.21916 40.5681 7.88686 40.3011 8.50649C40.0233 9.13146 39.6376 9.687 39.1414 10.1945C38.6424 10.6859 38.0491 11.1292 37.3533 11.4845C36.6575 11.853 35.8807 12.1388 35.0285 12.3231L43.4458 23.4497H38.9472L30.9102 12.6756H28.1808V23.4497H24.2864V0.518066ZM28.1862 11.5219H30.4382C31.3147 11.5219 32.1238 11.4097 32.8547 11.1746C33.6018 10.9423 34.2356 10.6191 34.7804 10.1945C35.3225 9.77513 35.7378 9.26233 36.0479 8.6614C36.3473 8.06047 36.501 7.38208 36.501 6.62623C36.501 5.93716 36.377 5.30685 36.1396 4.74063C35.8915 4.16107 35.5571 3.67498 35.1202 3.26634C34.6833 2.85503 34.1681 2.53454 33.5694 2.30752C32.9707 2.0805 32.318 1.95764 31.6006 1.95764H28.1835V11.5219H28.1862Z" fill="white"/>
<path d="M49.7568 0.518066H53.6567V23.4524H49.7568V0.518066Z" fill="white"/>
<path d="M66.4459 12.0534C66.4459 13.6693 66.6886 15.1062 67.1713 16.3801C67.6568 17.6488 68.3257 18.7305 69.1806 19.6145C70.0409 20.4986 71.0496 21.1823 72.2093 21.6417C73.3744 22.1117 74.6366 22.3521 76.0067 22.3521C76.8212 22.3521 77.6033 22.1972 78.3611 21.8847C79.119 21.5669 79.8202 21.1636 80.4621 20.6668C81.1121 20.1487 81.6946 19.5878 82.2043 18.9495C82.7087 18.3298 83.1375 17.6862 83.4665 17.0452L85.0955 18.0868C84.6101 18.8587 84.0491 19.5958 83.4018 20.3143C82.7572 21.0247 82.0048 21.6523 81.1552 22.1972C80.2949 22.7394 79.3321 23.1801 78.2587 23.5059C77.1934 23.8264 75.9905 24 74.6582 24C72.7352 24 71.0011 23.6822 69.4233 23.0438C67.851 22.4189 66.5079 21.5535 65.3886 20.4558C64.2667 19.3688 63.401 18.0921 62.7914 16.6579C62.19 15.2103 61.8853 13.6746 61.8853 12.0561C61.8853 10.9878 62.0201 9.94614 62.2979 8.91787C62.5919 7.90029 62.9991 6.94681 63.525 6.05742C64.0563 5.17071 64.7036 4.35077 65.4561 3.61362C66.2085 2.86045 67.0689 2.22746 68.0263 1.6933C68.9891 1.15914 70.0463 0.753172 71.1899 0.45404C72.3334 0.144224 73.5497 0 74.8416 0C76.0795 0 77.2068 0.16292 78.2533 0.48876C79.2943 0.809259 80.2409 1.2446 81.0959 1.79479C81.9508 2.33697 82.7087 2.97262 83.3721 3.6884C84.041 4.39884 84.6101 5.14133 85.0928 5.90519L83.4072 7.02426C82.4336 5.16537 81.3521 3.79257 80.1627 2.93256C78.9734 2.08057 77.5871 1.6479 76.0256 1.6479C74.6959 1.6479 73.4445 1.89361 72.2686 2.37703C71.1036 2.85778 70.0895 3.54418 69.2238 4.43623C68.3634 5.3363 67.6892 6.426 67.1848 7.71333C66.6913 8.99265 66.4459 10.4402 66.4459 12.0534Z" fill="white"/>
<path d="M97.1914 12.4566V23.4524H93.3077V0.518066H97.1914V10.977H108.824V0.518066H112.723V23.4524H108.824V12.4566H97.1914Z" fill="white"/>
<path d="M131.241 0L142.126 23.4525H138.18L134.636 15.8006H124.72L121.062 23.4525H119.099L130.256 0H131.241ZM125.394 14.3209H133.916L129.722 5.25083L125.394 14.3209Z" fill="white"/>
<path d="M148.51 0.518066H150.689L165.867 17.2801H166.01V0.518066H167.731V23.9999H166.83L150.395 5.34424H150.265V23.4524H148.51V0.518066Z" fill="white"/>
<path d="M176.933 0.518066H184.636C187.02 0.518066 189.067 0.737074 190.777 1.18043C192.476 1.62379 193.908 2.33155 195.054 3.30106C196.373 4.3961 197.358 5.65673 198.01 7.07493C198.671 8.50649 199 10.0716 199 11.7782C199 13.3861 198.706 14.9004 198.118 16.316C197.525 17.7475 196.659 18.9815 195.521 20.0391C194.383 21.0941 192.98 21.922 191.311 22.531C189.636 23.1373 187.729 23.4524 185.572 23.4524H176.931V0.518066H176.933ZM180.828 21.7618H184.949C186.262 21.7618 187.495 21.5535 188.652 21.1181C189.801 20.6961 190.801 20.0605 191.661 19.2138C192.516 18.3832 193.191 17.3416 193.682 16.113C194.175 14.8764 194.412 13.4555 194.412 11.853C194.412 10.4455 194.186 9.15283 193.711 7.97767C193.247 6.78916 192.595 5.77958 191.764 4.92492C190.92 4.06225 189.93 3.39721 188.781 2.92715C187.629 2.45708 186.362 2.21671 184.992 2.21671H180.828V21.7618Z" fill="white"/>
</svg>
