<svg width="37" height="76" viewBox="0 0 37 76" fill="none" xmlns="http://www.w3.org/2000/svg">
<g clip-path="url(#clip0)">
<path d="M0 70.3638C3.03784 70.0249 3.67688 69.2887 3.67795 66.4055C3.68223 54.2621 3.70257 42.1198 3.65547 29.9764C3.64798 28.1575 4.30521 27.0814 5.86374 26.1134C9.26766 23.999 12.5485 21.6723 15.7993 19.3185C17.071 18.3982 18.2538 17.8374 19.9611 18.8032C19.9611 15.7078 19.9461 12.8397 19.9643 9.9728C19.9889 6.0589 21.5336 2.94836 25.1205 1.30701C28.9077 -0.426364 32.7569 -0.655892 36.3578 1.97719C36.5815 2.14068 36.9326 2.25544 36.8534 2.80869C36.1747 2.78704 35.7326 2.25328 35.1974 1.9891C31.3996 0.114978 28.7471 1.46941 28.0845 5.66806C27.9796 6.32958 27.9753 7.01167 27.9753 7.68401C27.97 23.044 27.9732 38.404 27.9668 53.7651C27.9668 55.0189 28.047 56.2499 28.4988 57.4344C29.4215 59.8552 31.1438 60.7127 33.6389 60.049C34.7639 59.7502 35.7294 59.0941 37.0011 58.4358C36.6992 59.4785 36.0505 59.7286 35.525 60.0501C29.6313 63.6609 21.3634 60.1032 20.1078 53.4154C19.9847 52.7593 19.9686 52.0751 19.9675 51.4038C19.9579 44.243 19.9622 37.081 19.9622 29.9201C19.9622 29.4232 19.9622 28.9262 19.9622 28.1467C17.5398 29.735 15.3648 31.1587 13.1939 32.5879C12.5838 32.9896 12.845 33.6283 12.845 34.161C12.8311 46.2524 12.8343 58.3427 12.8343 70.4341C12.8343 73.5176 10.5597 75.8843 7.479 75.9969C6.90418 76.0175 6.34329 75.9006 5.89157 75.5152C4.67558 74.479 3.47136 73.4277 2.26821 72.3775C1.57779 71.7777 0.90022 71.1649 0 70.3638ZM4.60921 37.0713C8.35781 34.6092 11.8345 32.3367 15.2995 30.0457C16.8366 29.0291 18.9335 28.294 19.7106 26.8464C20.4878 25.3978 19.9162 23.2183 19.9729 21.3605C19.9975 20.5441 19.9611 19.8469 19.0812 19.4333C18.2142 19.0251 17.5495 19.2492 16.812 19.7657C13.1543 22.3305 9.55025 24.9766 5.73636 27.3055C5.03524 27.7331 4.60707 28.3329 4.60814 29.2002C4.61242 31.7206 4.60921 34.2422 4.60921 37.0713Z" fill="white"/>
<path d="M29.6602 31.1163C29.6602 23.9132 29.6559 16.709 29.6634 9.50596C29.6644 7.95122 29.6741 6.39433 30.3666 4.94245C30.661 4.3264 31.0164 3.75583 31.5687 3.3574C31.8192 3.17659 32.1253 2.74568 32.4657 3.17767C32.7322 3.51547 32.5567 3.81646 32.2292 4.09254C30.8237 5.277 30.6653 6.93675 30.6524 8.61599C30.6278 11.8803 30.6449 15.1457 30.6449 18.411C30.6449 30.2274 30.6353 42.0427 30.6567 53.8591C30.6599 55.4907 30.4994 57.2458 32.3587 58.165C32.6209 58.2949 32.6252 58.6078 32.5267 58.8557C32.3993 59.1751 32.1114 59.0874 31.8716 59.0214C31.1213 58.8146 30.6813 58.2548 30.3367 57.5966C29.7137 56.4099 29.6591 55.1194 29.6591 53.8169C29.6612 46.2501 29.6602 38.6832 29.6602 31.1163Z" fill="white"/>
<path d="M15.473 58.2094C15.4719 62.7187 15.4676 67.2292 15.4751 71.7385C15.4772 73.1006 15.1561 74.3143 13.9861 75.1328C13.7721 75.2822 13.4766 75.6146 13.1951 75.2778C12.9307 74.9617 12.9714 74.6499 13.3803 74.3944C14.5652 73.6549 14.5674 72.4423 14.5674 71.2308C14.5652 62.3149 14.6027 53.399 14.5278 44.4842C14.516 43.1417 15.1037 42.557 16.1141 42.0406C16.5027 41.8414 16.8185 41.7883 17.0358 42.1618C17.3365 42.6794 16.857 42.7129 16.5487 42.8114C15.6282 43.107 15.4515 43.7772 15.458 44.6791C15.4922 49.1895 15.474 53.7 15.473 58.2094Z" fill="white"/>
</g>
<defs>
<clipPath id="clip0">
<rect width="37" height="76" fill="white"/>
</clipPath>
</defs>
</svg>
